<svg width="119" height="25" viewBox="0 0 119 25" fill="none" xmlns="http://www.w3.org/2000/svg">
<path d="M0.933333 24V1.6H8.32V17.84H20.2667V24H0.933333ZM40.2396 24L39.2529 21.04H29.6529L28.6663 24H21.0396L29.2796 1.6H39.6263L47.8663 24H40.2396ZM31.4663 15.5733H37.4396L35.0929 8.53333H33.8129L31.4663 15.5733ZM48.9333 24V1.6H57.4133L64.8533 13.7067H65.52V1.6H72.72V24H64.4267L56.8 11.8933H56.1333V24H48.9333ZM74.5896 24V1.6H94.7763V7.52H81.9763V10.3733H94.2963V15.2267H81.9763V18.08H94.7763V24H74.5896ZM107.319 24.7467C99.5854 24.72 95.9321 22.32 96.1188 16.5067H102.759C102.839 18.0267 104.119 18.96 107.319 18.9867C110.145 19.0133 111.452 18.2133 111.452 17.1733C111.452 16.4533 111.052 15.7067 108.865 15.3867L105.985 14.9333C101.745 14.24 96.6521 13.7333 96.6521 8C96.6521 3.57333 100.252 0.853333 107.372 0.853333C113.799 0.853333 118.279 2.64 118.145 9.04H111.559C111.292 7.54667 110.039 6.61333 107.212 6.61333C104.759 6.61333 103.745 7.36 103.745 8.37333C103.745 9.01333 104.145 9.78667 105.852 10.0533L108.225 10.4533C112.679 11.2 118.785 11.3333 118.785 17.4667C118.785 22.3467 114.999 24.7733 107.319 24.7467Z" fill="black"/>
</svg>
